<svg version="1" xmlns="http://www.w3.org/2000/svg" width="2133.333" height="2133.333" viewBox="0 0 1600.000000 1600.000000"><path d="M640.7 229.4l-8.7 4.3-20.3.6c-37.3 1.2-55.2 3.4-80.8 9.7-22.2 5.6-35 8-42.1 8-4.4 0-5.9.7-15.3 7l-10.5 7v90c0 49.5.2 90 .5 90 1.6 0 47-13.2 48.8-14.2 1.6-.8 2.2-.8 2.5.1.5 1.4 3.2 1.5 3.2 0 0-.5.5-.7 1-.4.6.3 1 .2 1-.4 0-.6.6-.8 1.4-.5.8.3 1.7.1 2-.5.4-.6 1.4-.7 2.3-.4 1.1.4 1.4.3.9-.5-.5-.8-.2-1 .8-.6.8.3 2.1.2 2.8-.3.7-.4 2.4-.8 3.8-.8 1.6 0 2.4-.6 2.2-1.4-.3-1.2 0-1.2 1.2-.2.9.7 2.1.9 2.8.5.7-.5 2.1-.7 3.2-.5 1 .1 1.6-.2 1.2-.7-.3-.5.5-.7 1.9-.4 1.5.2 2.5 0 2.5-.7s.4-1 .9-.6c.5.3 1.2.1 1.6-.5.4-.6 1.1-.8 1.6-.5.5.4 1.4.3 2.1-.1.7-.4 2.1-.9 3.2-1 2.2-.2 6.1-1.1 6.1-1.4 0-.2 3.5-1 6.3-1.4 1.2-.1 2.5-.5 2.8-.8.3-.3 2.3-.4 4.5-.2 2.5.3 3.8 0 3.4-.6-.4-.6.7-.8 2.9-.4 2.6.4 3.6.2 3.6-.8 0-.8.3-.9.8-.3 1 1.4 7.5 1.5 8.4.1.5-.8.8-.7.8.1 0 1.3 2.6 1.3 4.7 0 .6-.4 1.4-.3 1.8.3.4.6 1.1.8 1.6.5.5-.4.9-.2.9.2 0 .5 1.4.8 3 .7 1.7-.1 3 .1 3 .6 0 .4 1.1.5 2.5.2 3.8-.7 13.4 2.6 18.7 6.5 7.3 5.3 20 19.5 25 28.1 9.1 15.5 17.2 37.9 33.2 91.2l10.6 35.5-166.5 389.4c-91.5 214.2-166.2 389.8-165.9 390.3.3.4 50.2.8 110.9.8 109.8 0 110.4 0 110-2-.2-1.1.1-2 .6-2 .6 0 .8-.4.5-.9-.3-.5.1-1.2 1-1.5 1-.4 1.4-1.2 1-2.3-.4-.9.1-2.4 1-3.4 1-1.1 1.4-1.9 1-1.9-.4 0-.1-1 .6-2.3.7-1.2 1.1-2.5 1-2.9-.1-.5.3-.8.9-.8.5 0 .7-.5.4-1.1-.4-.6.1-1.7 1.1-2.5 1.1-.9 1.2-1.2.4-.8-1 .5-.8-.1.5-1.6 1.1-1.3 1.4-2 .6-1.5-.9.5-.8 0 .3-1.7.9-1.4 1.3-2.8.9-3.1-.3-.4-.1-.7.5-.7.7 0 1.2-.9 1.2-2.1 0-1.1.4-1.8.9-1.5.5.4.7-.3.4-1.4-.3-1.2.1-2.2 1-2.6.9-.3 1.3-1.2 1-2-.3-.8 0-1.4.6-1.4s.8-.7.5-1.5c-.4-.8-.2-1.5.4-1.5.5 0 1.3-.7 1.6-1.6.4-1 .2-1.3-.7-.8-.6.4-.4-.2.6-1.3.9-1.1 1.4-2.3 1-2.6-.3-.4-.1-.7.6-.7s1-.4.7-.9c-.8-1.3.4-4.2 1.5-3.5.5.3.6-.2.3-1-.4-.9-.1-1.6.6-1.6s1-.7.6-1.5c-.3-.8-.1-1.5.5-1.5s.7-.5.4-1c-.3-.6-.1-1 .5-1s.8-.5.5-1.1c-.4-.5.1-1.9 1-2.9s1.4-2.3 1.1-2.8c-.3-.6.1-1.3 1-1.6 1-.4 1.3-1.3.9-2.5-.3-1 .1-2.3 1-3.1.8-.7 1.2-1.6.9-2.1-.3-.5 0-.9.7-.9s.9-.3.6-.7c-.4-.3.1-1.5 1-2.6 1.3-1.5 1.4-1.8.3-1.2-.9.5-.7-.1.5-1.5 1.1-1.3 1.4-2 .8-1.6-.9.5-1.1.2-.7-.8.3-.9 1-1.3 1.5-1 .5.3.6-.2.3-1-.4-.9-.1-1.6.6-1.6.6 0 1-.6.7-1.3-.2-.6.3-1.8 1.2-2.5 1.3-1.1 1.3-1.2.1-.6-1 .5-.8-.1.5-1.6 1.2-1.4 1.4-2 .5-1.5-1 .6-.9.1.3-1.3 1.1-1.1 1.6-2.6 1.2-3.1-.3-.6-.1-1.1.5-1.1s.8-.5.5-1c-.3-.6-.1-1 .5-1s.8-.5.5-1c-.3-.6-.1-1 .5-1s.8-.5.5-1c-.3-.6-.2-1 .3-1s.9-.6.9-1.3c.1-2.2.8-4.1 2.1-5.5.7-.8 1-1.8.7-2.2-.3-.5.3-1.8 1.4-2.9 1.1-1.1 1.8-2.9 1.6-4.1-.2-1.1 0-1.8.6-1.5.5.4 1 .3 1-.2.1-.4.3-2.1.5-3.8.2-1.6.8-3.1 1.3-3.3.5-.2.7-1 .4-1.9-.5-1.2-.3-1.4.7-.8 1 .6 1.2.4.7-.8-.3-.9 0-1.8.9-2.1.9-.3 1.3-1 1-1.4-.8-1.3 1.9-8.3 2.9-7.5.4.5.5 0 .2-.9-.3-1 0-2.4.8-3.2.8-.7 1.1-1.7.7-2.1-.4-.3.1-1.1 1-1.6 1-.5 1.5-1.6 1.2-2.3-.3-.7.2-2.1 1.1-3 .9-.9 1.4-2 1.1-2.5-.8-1.3.4-4.2 1.5-3.5.5.3.6-.3.2-1.2-.4-1.1-.2-1.5.4-1.1.6.4 1-.1 1-1.1 0-3.5.3-4.3 1.5-3.6.8.5.9.2.5-.9-.8-2.1.2-4.9 1.4-4.1.5.3.6-.1.4-.9-.6-1.5 1.9-7 2.8-6.1.3.3.3-.4 0-1.7-.4-1.5-.3-2 .5-1.5s1 .1.5-1c-.4-1.1-.3-1.5.4-1.1.7.5.9-.1.5-1.5-.3-1.4-.1-1.9.6-1.4.8.5 1 .1.5-1-.3-1-.2-1.5.3-1.2.5.4 1-.5 1.1-2 0-1.4.8-2.9 1.7-3.4.9-.5 1.4-1.3 1.1-1.9-.8-1.3.4-5.1 1.5-4.4.4.3.6-.5.2-1.7-.3-1.4-.1-1.9.6-1.4.8.5 1 .1.5-1-.4-1.2-.3-1.5.5-1s1 .2.6-.8c-.3-.9-.1-1.6.5-1.6s.8-.7.4-1.7c-.5-1.2-.3-1.4.7-.8 1 .6 1.2.4.7-.7-.3-.9-.3-1.9.1-2.3.7-.6.8-1 1.1-3.6 0-.5.5-.8 1-.5.5.4.7-.4.3-1.6-.3-1.4-.1-1.9.6-1.4.8.5 1 .2.6-.8-.3-.9-.1-1.6.6-1.6.6 0 .8-.5.5-1-.3-.6-.2-1 .4-1 .6 0 .8-.7.5-1.5-.4-.8-.1-1.5.7-1.5.7 0 1-.3.6-.6-1-1 1.4-6.4 2.6-5.7.6.4.8 0 .4-1-.9-2.3.2-4.9 1.7-4 .6.3.8.3.4-.2-.4-.4-.3-1.4.2-2.1.6-.6.9-1.6.8-2-.4-1.4 2.5-7.8 3.9-8.7.7-.5 1.1-1.2.8-1.8-1-1.5.5-5 1.7-4.3.7.5.9.1.5-.9-.8-2 .2-4.9 1.4-4.2.4.3.6-.4.4-1.5-.2-1.1 0-2 .6-2 .5 0 .8-.3.8-.8-.3-1.7.2-3.3.9-2.9.4.3.8-.6.9-2 0-1.4.7-2.9 1.3-3.3.7-.4 1-1.2.6-1.8-.3-.5.1-1.5.9-2.2.7-.6 1.1-1.9.8-2.7-.4-1.1-.2-1.4.5-.9.8.4 1 .2.6-.7-.3-.8.2-1.7 1-2 .9-.4 1.2-1.4.9-2.5-.2-1.1 0-2.3.6-2.6.6-.4 1.1-1.6 1.1-2.7s.4-1.7 1-1.4c.6.3.7-.1.4-.9-.3-.9-.1-1.6.6-1.6.6 0 .8-.5.5-1-.3-.6-.1-1 .5-1s1-.6.9-1.3c-.3-2.6.1-3.8 1.3-3.1.8.5.9.2.4-1.1-.4-1.1-.2-2.2.6-2.6.7-.5 1.3-1.4 1.4-2.1 0-.7.2-2.1.2-3.1.1-1.1.7-1.5 1.4-1.1.8.5.9.2.5-.9-.3-1-.2-1.7.4-1.7.6 0 .7-.5.3-1.1-.3-.6-.2-1.4.4-1.8 1-.6 1.8-3.2 2.1-6.4.1-.5.7-.5 1.4-.1.6.4.9.4.5-.1-.4-.4-.2-1.5.5-2.3.9-1.3.9-1.4 0-.8-2 1.2-1.5-.1 1-2.5 1.2-1.2 1.5-1.8.7-1.4-1.3.8-1.3.7-.1-.8.7-.9 1-1.7.5-1.7s-.2-.5.6-1c1.5-.9 1.6-1.4 1.9-5.3 0-1 .5-1.5 1.1-1.2.6.4.7-.1.3-1.1-.4-1.1-.3-1.5.4-1.1.7.4 1 0 .9-1-.2-1 .3-2.7 1.1-3.9.7-1.1 1-2.4.6-2.7-.3-.4-.1-.7.6-.7s.9-.5.6-1c-.3-.6-.1-1 .5-1s.8-.5.5-1c-.3-.6-.2-1 .4-1 .6 0 .7-.7.4-1.7-.5-1.2-.3-1.4.7-.8 1 .6 1.2.4.7-.7-.3-.9-.3-1.9.1-2.3.7-.6.8-1 1.1-3.6 0-.5.5-.8 1-.4.6.3.8-.4.6-1.5-.2-1.1.1-2 .6-2 .6 0 .8-.4.4-.9-.3-.5-.1-1.2.5-1.6.6-.4.8-1 .5-1.5-.3-.4.2-1 1-1.4.8-.3 1.2-1.2.9-2.1-.3-.8-.1-1.5.6-1.5.6 0 .8-.5.5-1-.3-.6.4-2.4 1.6-4.2 1.3-1.7 1.8-2.8 1.1-2.4-.9.6-1 .2-.1-1.8.7-1.4 1.6-2.3 2-2 .4.2.6-.4.4-1.5-.2-1.1.3-2.2 1-2.5.8-.3 1.1-1.3.8-2.7-.4-1.5-.3-2 .6-1.5.6.4 1 .4.9-.1-.6-2 1.2-7.4 2.3-6.7.7.4 1 .1.7-.7-.3-.8.2-2.3 1.1-3.3.9-1.1 1-1.6.4-1.2-.9.5-1.1.2-.7-.8.3-.9 1-1.6 1.5-1.6.4 0 .6-.7.3-1.5-.4-.8-.1-1.5.7-1.5.7 0 .9-.3.6-.7-.4-.3.1-1.5 1-2.6 1-1.1 1.3-1.7.6-1.4-.8.5-.8.1 0-1.8.7-1.4 1.5-2.5 1.9-2.5.4 0 .4-.7.1-1.7-.5-1.2-.3-1.4.7-.8.8.5 1.1.3.8-.6-.3-.8.2-2.3 1.1-3.3 1.2-1.4 1.2-1.7.2-1.1-.9.5-.7-.5.7-2.7 1.2-1.9 1.9-3.8 1.5-4.1-.3-.4-.1-.7.6-.7s.9-.5.6-1c-.3-.6-.1-1 .5-1s.8-.5.5-1.1c-.4-.6.1-1.7 1.1-2.5 1.1-.9 1.2-1.2.4-.8-1.2.7-1.3.5-.3-.8.7-.8 1-1.8.6-2.1-.3-.4-.1-.7.6-.7s1-.4.6-.9c-.3-.5.1-1.5.8-2.3.8-.7 1.2-1.9.9-2.7-.3-.8 0-1.1.7-.7.7.5.9.1.5-.8-.3-.9-.1-1.6.6-1.6.6 0 .9-.4.5-.9-.3-.6.1-1.6.8-2.3.8-.7 1.2-2.1.9-3.2-.3-1.3-.1-1.7.6-1.2.8.4 1 .2.6-.7-.3-.8.2-1.7 1.1-2.1.9-.3 1.3-1 1-1.6-1-1.5.5-5.1 1.7-4.4.7.5.9.1.5-.9-.8-2.1.2-4.9 1.4-4.1.5.3.6-.2.3-1-.4-.9-.1-1.6.6-1.6s1-.7.6-1.5c-.3-.8-.1-1.5.5-1.5s.7-.5.4-1c-.3-.6-.1-1 .5-1s.8-.5.5-1c-.3-.6-.1-1 .5-1s.8-.5.5-1c-.3-.6-.1-1 .5-1s.8-.4.5-1c-.3-.6-.1-1 .5-1s.8-.5.5-1c-.3-.6-.1-1 .5-1s.9-.4.5-.9c-.3-.5-.1-1.2.5-1.6.5-.3 1.1.1 1.1.9.2 2.4.4 2.9 1.8 5.5 1.1 1.9 1.1 2.2-.1 1.5-.8-.4-.7 0 .3 1.2.9 1 1.4 2.5 1.2 3.1-.3.7.1 1.3.7 1.3.7 0 1 .6.7 1.4-.3.8.1 2 .9 2.7.8.7 1.4 1.9 1.2 2.8-.1.9.4 2.6 1 3.9.7 1.2 1 2.8.6 3.4-.4.7-.3.8.4.4s1.3-.2 1.3.3c.2 1.4.6 2.9.9 3.6.1.3.3.8.5 1.2.1.5.5 1.6.9 2.5.4.9.4 2.2 0 2.9-.5.8-.3.9.6.4 1-.6 1.2-.4.7.9-.4 1.1-.3 1.5.4 1 .6-.4.9.1.7 1.3-.2 1.1.3 2.7 1 3.6.7.8 1.4 2.5 1.5 3.6.1 1.2.5 2.1 1 2.1s.7.9.4 2c-.3 1.3-.1 1.8.6 1.3.6-.4.8.2.4 1.6-.3 1.5 0 2.4.9 2.8.8.3 1.3 1.2 1 1.9-.3.8-.1 1.4.5 1.4s.9.6.6 1.4c-.3.8-.2 1.6.2 1.8.5.2 23.6 62.8 51.5 139.2 27.9 76.3 52.7 143.4 55.2 148.9s7.2 16.7 10.5 24.9c9.5 23.8 13.9 32.3 25.3 49.3 23.4 34.5 35.2 47.8 54 60.3 17.1 11.5 26 15.4 51 22.7 24.2 7 31.8 7.7 72.9 7.3 19.4-.1 35.8-.7 36.6-1.2.7-.5 3.3-1 5.7-1.2 2.4-.2 7-1 10.2-1.9 3.1-.9 6.9-1.8 8.4-2 3.2-.5 10.7-2.4 12.8-3.2.8-.3 2-.7 2.5-.7.6-.1 2.5-.5 4.3-1l3.3-.8-.3-86.8c-.2-47.8-.6-87.1-.9-87.4-.3-.3-5.4.3-11.5 1.3-6 1.1-13.4 1.9-16.4 1.9-3 .1-5.6.5-5.8 1-.1.5-1.4.7-2.7.4-1.4-.2-2.5 0-2.5.4 0 .5-7.7.8-17.2.8-15-.1-17.5-.4-20-2-1.7-1.2-2.8-2.8-2.8-4.2 0-1.3-.4-2-1-1.7-.5.3-1 0-1-.7-.1-.7-1.2-2.7-2.6-4.3-1.5-1.7-2.3-2.4-1.9-1.6.6.9.4 1.2-.4.7-.6-.4-.9-1.1-.6-1.6.3-.5-.2-1.6-1.1-2.4-.8-.9-1.2-1.6-.8-1.6.4 0-.1-.7-1.2-1.6-1-.8-1.2-1.2-.4-.8 1.1.6 1 .2-.2-1.3-1-1.1-1.8-2.5-1.8-3.2 0-.7-.4-.9-1-.6-.5.3-1.2-.6-1.6-2-.3-1.3-.9-2.3-1.3-2.1-.4.3-1.3-.4-2-1.6-1-1.6-1-1.8 0-1.2.7.4 0-.9-1.5-2.9-1.6-2.1-2.6-4.3-2.2-5.2.4-1.1.2-1.4-.6-.9-.8.5-.9.2-.5-.9.3-1 .2-1.7-.4-1.7-.6 0-.7-.5-.4-1 .4-.6.2-1.6-.3-2.3-.5-.7-.9-2.4-.8-3.9.1-1.4-.2-2.4-.6-2.2-.4.3-.7-2.2-.5-5.5.2-3.4-.1-6.1-.6-6.1-.4 0-.5-1-.2-2.1.5-1.3.3-1.9-.3-1.5-1.1.7-2.5-2.1-1.6-3.5.3-.5 0-.9-.7-.9-.6 0-.9-.8-.6-2 .3-1.3.1-1.8-.6-1.3-.6.4-.8 0-.4-1 .3-1 .2-1.7-.4-1.7-.6 0-.8-.4-.5-.9.4-.5.1-1.1-.5-1.3-.6-.2-1.2-1.6-1.2-3.1-.1-1.5-.5-2.7-.8-2.7-.5 0-7.1-16.9-7.4-19-.1-.3-.9-2.3-1.8-4.4-1-2.2-1.5-4.6-1.2-5.3.2-.8.1-1.2-.3-.9-.5.3-1.7-1.8-2.7-4.7-1-2.9-6.7-18.2-12.6-34.1-6-15.9-10.6-29.2-10.4-29.7.3-.4.1-.9-.4-1.1-.7-.2-30.9-80.3-46.7-123.8-1.9-5.2-4-10.6-4.6-12-4.1-9.7-10.7-29.4-10.1-30.3.3-.7.2-.9-.2-.4-1.1.9-5.8-11.2-5-13.1.2-.7.1-1.1-.3-.8-.5.3-1.4-1.2-2.1-3.2-.7-2-1.6-4.6-2.1-5.7-2.8-6.2-5.9-15.9-5.3-16.8.3-.5.1-.7-.4-.4-1.3.8-2.7-3.9-1.7-5.5.4-.7.3-.8-.4-.4-1.1.7-1.6-.7-1.5-4.1.1-.7-.3-1-.8-.7-.9.5-1.2-.9-1.2-4.8 0-1-.3-1.6-.7-1.3-1 .6-3.2-6.3-2.4-7.6.4-.7.3-.9-.3-.6-.6.4-1.6-.6-2.2-2.3-.5-1.7-.7-3-.4-3 .3 0 0-.6-.6-1.3-.6-.8-.8-1.7-.4-2 .3-.4 0-.7-.7-.7s-1-.3-.7-.7c.4-.3.2-1.2-.4-1.9-.6-.8-.9-2-.6-2.9.4-.8 0-1.8-.8-2.3-.8-.4-1.6-2-1.7-3.5-.1-1.5-.6-2.7-1.1-2.7-.5 0-.6-.7-.3-1.6.4-1 .2-1.3-.6-.8-.7.5-.9 0-.6-1.4.4-1.2.2-2-.3-1.6-.8.5-1.3-1.8-1.2-5.3.1-.7-.3-1-.8-.7-.8.5-1.3-1.2-1.2-4.3.1-.7-.4-1-1-.6s-.8-.2-.5-1.5c.4-1.2.3-2-.2-1.7-1 .6-2.2-2.4-1.4-3.6.3-.5 0-.9-.7-.9s-1-.3-.6-.6c.3-.4-.1-2-.9-3.6-.9-1.7-1.3-3.2-1-3.5.3-.3-.3-1.8-1.4-3.3-1.1-1.6-2.1-4-2.2-5.4-.1-1.4-.6-2.6-1.1-2.6-.5 0-.7-.7-.3-1.5.3-.8.1-1.5-.5-1.5s-.8-.7-.5-1.6c.3-.8.2-1.2-.4-.9-.9.5-1.5-2.3-1.1-4.8 0-.4-.4-.7-1-.7-.5 0-.7-.5-.4-1 .3-.6.1-1-.5-1-.7 0-1-.7-.6-1.5.3-.8.1-1.5-.4-1.5s-.7-.9-.5-2c.2-1.1 0-1.8-.4-1.5-.5.3-1.2-.2-1.5-1.1-.4-1-.2-1.3.7-.8.6.4.5-.1-.4-1.2-.9-1-1.5-2.7-1.4-3.7.2-.9 0-1.5-.5-1.2-1 .6-2.2-2.4-1.4-3.6.3-.5.1-.9-.5-.9-.5 0-.8-.9-.6-2 .2-1.1 0-1.8-.5-1.5-1 .6-2-2.2-2.3-6.2 0-1.2-.4-2-.8-1.7-.9.5-2.1-2.5-1.4-3.6.3-.5.1-1.1-.5-1.5-.5-.3-1-1.5-1-2.6 0-1-.5-1.9-1.1-1.9-.6 0-.9-.7-.6-1.5.4-.8.2-1.7-.4-2.1-.6-.3-.8-1.3-.5-2.1.3-.8.2-1.2-.3-.9-.5.3-1.2-.1-1.5-1-.4-1-.2-1.3.7-.8.6.4.4-.2-.6-1.4-1.1-1.1-1.6-2.6-1.2-3.1.3-.6.1-1.1-.6-1.1-.6 0-.9-.8-.6-2 .3-1 0-2.1-.6-2.3-.5-.1-1.1-1.2-1.2-2.3-.1-1-.9-3.3-1.8-5-.9-1.7-1.3-3.4-1-3.8.4-.3.1-.6-.6-.6s-1.1-.6-.8-1.4c.3-.8.1-1.6-.4-1.8-.5-.2-1.1-1.4-1.3-2.8-.1-1.4-1-4-2-5.8-.9-1.8-1.4-3.8-1-4.4.5-.7.3-.8-.6-.3-1 .6-1.2.3-.8-1.3.4-1.3 0-2.3-1-2.7-.8-.3-1.2-.8-.9-1.2.4-.3.1-1.3-.6-2.1-1-1.3-.9-1.4.3-.7 1.1.6 1 .3-.3-1.2-.9-1.1-1.4-2.3-1-2.6.3-.4.1-.7-.6-.7s-1-.4-.6-.9c.3-.5 0-1.3-.6-1.6-.5-.4-.8-1.3-.5-2 .3-.8-.2-1.9-1-2.6-.9-.7-1.3-2.1-1.1-3.1.3-1.1.1-1.6-.6-1.1-.6.4-.8 0-.4-1 .3-1 .2-1.7-.4-1.7-.6 0-.8-.4-.4-.9.3-.5 0-1.3-.6-1.6-.5-.4-.8-1.4-.5-2.2.4-.9.2-1.1-.6-.7-.7.5-.9 0-.6-1.4.4-1.2.2-2-.3-1.6-.5.3-.9-.6-.9-2s-.4-2.6-.9-2.6c-.6 0-.8-.9-.6-2 .2-1.1 0-1.8-.6-1.5-.8.5-1.4-1.5-1-3.8 0-.4-.4-.7-1-.7-.5 0-.8-.4-.4-.9.3-.5 0-1.3-.6-1.6-.5-.4-.8-1.3-.5-2.1.3-.8.1-1.4-.5-1.4s-.7-.5-.4-1c.3-.6.2-1-.4-1-.5 0-.8-.9-.6-2 .2-1.1 0-1.8-.6-1.5-.8.6-1.3-1.1-1.2-4.2.1-.7-.4-1-1-.6s-.8-.2-.5-1.5c.4-1.2.2-2-.3-1.6-.8.4-1.4-2.6-1-4.9.1-.5-.4-.5-1-.1-.9.5-1 .1-.7-1.4.4-1.4.2-2-.5-1.5-.6.4-.8-.2-.5-1.5.4-1.2.2-2-.3-1.6-.8.4-1.4-2.6-1-4.9.1-.5-.4-.5-1-.1-.9.5-1 .1-.7-1.4.4-1.2.2-2-.3-1.6-.8.4-1.4-2.6-1-4.9.1-.5-.4-.5-1-.1-.9.5-1 .1-.7-1.4.4-1.4.2-2-.4-1.6-.6.4-.8-.2-.3-1.6.5-1.5.3-2-.3-1.6-1.3.8-2.6-2.9-1.6-4.5.5-.8.3-.9-.6-.4-1 .6-1.2.3-.8-1.3.4-1.4.2-2-.5-1.5-.7.4-.8 0-.4-1.1.4-1 .3-1.5-.3-1.1-.9.6-1.3-.7-1.3-4.7 0-1-.4-1.5-.8-1.2-.9.5-1.2-.5-1.2-3.8 0-1-.4-1.5-.8-1.2-.9.5-1.3-1.7-1-4.5.2-.7-.2-1-.7-.7-.5.3-1.2-.3-1.5-1.4-.3-1.2-.1-1.8.5-1.4.6.4.3-.5-.6-1.8-.9-1.4-1.3-2.8-.9-3.1.3-.4.2-.7-.4-.7-.6 0-1.4-.7-1.7-1.6-.4-1-.2-1.3.7-.8.9.6.9.5 0-.8-.7-.8-1-1.8-.6-2.1.3-.4.1-.7-.6-.7-.8 0-1.1-.7-.7-1.5.3-.9-.1-1.8-1-2.2-.8-.3-1.3-1.2-1-1.9.3-.8.1-1.4-.4-1.4s-.7-.7-.4-1.5c.4-.8.1-1.5-.6-1.5s-1-.7-.6-1.6c.4-1 .2-1.3-.6-.8s-.9.2-.5-.9c.3-.9.2-1.9-.4-2.3-.6-.3-.8-1.1-.6-1.7.2-.7-.3-1.8-1.2-2.5-1.3-1.1-1.3-1.2-.1-.6 1 .5.9.1-.4-1.4-1-1.2-1.6-2.8-1.3-3.7.4-.8.1-1.5-.5-1.5s-.8-.3-.5-.7c.4-.3.2-1.2-.5-2-.6-.7-.8-1.6-.5-2 .4-.3-.1-1.2-1.1-2-1-.9-1.1-1.1-.2-.7 1.3.7 1.3.6 0-1.1-.8-1-1.4-2.7-1.2-3.8.2-1-.1-1.6-.6-1.3-.6.3-1.3-.1-1.6-1-.4-1-.2-1.3.7-.8.9.5.9.4 0-.7-.7-.7-1.3-1.9-1.3-2.7 0-.8-.8-2.1-1.7-2.9-1.1-.8-1.2-1.1-.3-.7 1.3.7 1.3.5.1-.9-.7-.9-1-1.7-.5-1.7.4 0-.1-.7-1.2-1.6-1-.8-1.2-1.2-.4-.8 1.2.6 1.2.4-.1-1.2-.9-1-1.4-2.5-1.2-3.2.3-.6 0-1.2-.7-1.2-.6 0-.8-.5-.5-1 .3-.6.1-1-.4-1-.6 0-1.1-.7-1.1-1.6 0-.9-.8-2.3-1.7-3.1-1-.8-1.2-1.2-.5-.8 1.9 1 1.4-.2-1-2.6-1.3-1.2-1.7-1.9-1.1-1.5.9.5 1.1.2.7-.8-.3-.9-1.1-1.6-1.6-1.6-.6 0-.8-.7-.4-1.5.3-.8-.1-2-.8-2.7-.7-.7-1.4-1.8-1.5-2.3-1.2-3.8-2.2-5.5-3.1-5-.5.3-.7 0-.4-.8.3-.8-.2-2.2-1.1-3-.9-.9-1.4-1.8-1.3-2 .6-.7-4.5-10.7-5.4-10.7-.5 0-.6-.5-.3-1 .3-.6.1-1-.5-1s-.9-.4-.6-.9c.3-.5-.2-1.9-1.2-3.2-1-1.3-2.6-4.3-3.6-6.6s-2.3-4-2.7-3.7c-.5.3-.6-.1-.3-.9s.1-1.8-.5-2.2c-.6-.3-1.1-1.5-1.1-2.6 0-1.7-1.1-2.4-3.3-2-.5.1-.6-.3-.3-.8.7-1.1-5-9.1-6.6-9.1-.6 0-.8-.3-.5-.7 1-1-1.4-3.4-2.7-2.6-.6.4-.4-.2.4-1.3.8-1 1.1-1.6.6-1.2-.5.4-1.7-.4-2.8-1.7-1.1-1.4-2.4-2.3-2.8-2-.5.3-.7-.4-.5-1.5.2-1.1 0-1.8-.4-1.5-.5.3-1.2-.2-1.5-1.1-.3-.8-1.1-1.2-1.7-.8-.7.4-.9.3-.5-.4.3-.6-.2-1.7-1.2-2.4-.9-.7-2.8-2.6-4-4.2-1.2-1.6-2.2-2.5-2.2-2 0 .4-4-3.3-9-8.3-4.9-5-9-9.6-9-10.3 0-.6.4-.9.8-.6.5.3.9-.1.9-.9 0-1.3-.3-1.3-1.7 0-1.5 1.3-1.9 1.3-3.8-.8-1.2-1.3-1.9-2.7-1.5-3.2.5-.4.3-.5-.3-.2-.6.4-2-.3-3-1.5-1.1-1.2-1.3-1.8-.6-1.4.6.4 1.2.2 1.2-.3 0-.6-.7-1.1-1.5-1.1-2.1 0-5.5-3.1-4.8-4.3.4-.6-.1-.8-1.1-.4s-1.5.3-1.1-.3c.3-.6.1-1-.4-1-.6 0-1.1-.5-1.1-1.1 0-.5.4-.7 1-.4.6.4.7-.1.3-1.1-.6-1.6-.8-1.6-1.6.4-.9 1.9-1.1 2-3.3.5-1.3-.8-2.4-2-2.4-2.6 0-.5.8-.3 1.8.7 1.8 1.5 1.9 1.5 3-.9.7-1.5.8-2.5.2-2.5-.6 0-1 .7-1 1.5s-.4 1.5-.9 1.5c-1.4 0-4.1-4.1-3.5-5.2.9-1.4 2.4-.9 1.8.6-.3.8-.1 1.7.5 2.1.7.4.8 0 .4-1.1-.5-1.3-.3-1.5.8-.9.8.5.4-.3-.9-1.7-1.4-1.5-2-3.2-1.7-4.4.4-1.3.2-1.2-.6.3-1.5 2.8-2.4 2.9-2.6.3-.1-1.1.2-1.8.7-1.5.6.4.7-.2.3-1.2-.3-1-.2-1.5.2-1 .5.4 1.7-.1 2.7-1 1.9-1.7 1.9-1.6 1.4 1.2-.6 2.8-.6 2.8.4.6.8-1.9.7-2.8-.5-3.8-.8-.7-1.3-1-1-.7.2.3-.1 1.2-.8 1.9-.9.9-1.6.9-2.9.1-2.4-1.5-2.3-2.9.2-2.1 1.2.4 2 .2 2-.5 0-.6-.4-.9-.9-.5-.5.3-1.6-.3-2.3-1.4-2.2-3-7.3-3.3-6.4-.3.4 1.3.1 1.9-.9 1.9s-1.4-.6-1-1.5c.3-.8 0-2.2-.7-3-1.1-1.3-1-1.5.3-1 .9.3 2.2.2 3-.3.8-.5 1-.9.4-1-.5 0-1.8-.2-2.7-.4-1-.2-1.8.2-1.8.8 0 .7-.5.4-1.1-.6-.7-1.1-2.1-1.8-3.7-1.7-1.5.1-3.1.1-3.7 0-.5-.2-2.6-.4-4.5-.5-1.9-.1-4.2-.4-5-.8-.8-.3-2.8-.5-4.5-.6-1.6 0-4.5-.3-6.4-.7-2.4-.5-3.2-.3-2.7.5.4.6.2 1.1-.3 1.1-.6 0-1.1-.4-1.1-.9s-1.3-.9-3-.9c-2.7.1-3.5.8-3.1 3 0 .5-.4.8-1 .8s-.8-.8-.4-1.9c.7-2.4-1.2-2.9-13.6-3-8.5-.1-11-.6-22.9-4.6-7.4-2.5-13.4-4.5-13.5-4.4 0 0-3.9 2-8.8 4.3zm56.8 6.6c.3.6-.1.7-.9.4-1.8-.7-2.1-1.4-.7-1.4.6 0 1.3.4 1.6 1zm12.8 2.8c-1.5 1.5-3 2.4-3.1 2-.2-.5-.8-.6-1.3-.3-.5.4-.6-.1-.2-1 .4-1.1.8-1.3 1.3-.6.4.8 1.3.5 2.5-.9 1-1.1 2.2-2 2.7-2s-.4 1.2-1.9 2.8zm-16.3-1.4c0 .2-.7.6-1.5 1-.8.3-1.5.1-1.5-.4 0-.6.7-1 1.5-1s1.5.2 1.5.4zm23 3.8c0 .5-.5.8-1.1.8-.5 0-.8-.4-.4-.9.3-.5.1-1.2-.5-1.6-.5-.3-1-1.1-1-1.8 0-1.2 2.9 2.3 3 3.5zm2-3.2c0-.8.6-.9 1.8-.5.9.4 3.6.8 6 .9 2.6.1 4.7.7 5.2 1.6.7 1 1 1.1 1 .2 0-.6 1.2-1.2 2.7-1.2 4.1 0 1.3 1.8-3.4 2.2-.7.1-1.3.6-1.3 1.1 0 .5.7.6 1.6.3 1-.4 1.3-.2.8.6-.4.6-.3.8.3.5.5-.3 1 0 1 .8 0 1.1-.5 1-2.6-.2-2.2-1.4-2.2-1.2.4 1 1.7 1.5 3.4 2.6 3.9 2.7.6 0 .1.7-1 1.6-1.5 1.2-1.6 1.5-.2 1 .9-.2 2.2.3 3 1.2.7.8.8 1.3.2.9-.6-.3-1.1 0-1.1.8 0 1.2.3 1.2 1.6.2 1.2-1 1.3-.9.6.2-.6 1-.4 1.2.5.6.8-.5 1.1-.4.6.3-.3.6-.2 1.3.3 1.7.6.3.8-.3.6-1.5-.2-1.1 0-2 .5-2 1.9 0 1.9 1.9-.1 4.1-1.1 1.3-1.7 1.8-1.3 1 .5-1 .3-1.3-.9-.8-1.2.4-1.4.2-1-1.1.6-1.4.4-1.5-.9-.4-1.2 1-1.8.9-2.8-.3-.7-.8-.9-1.5-.4-1.5s.2-.4-.6-1c-.9-.6-2-.5-3 .3-1.3 1-1.3 1-.2-.4 1-1.3.9-1.9-.5-3-1.5-1.2-1.6-1.2-1 .3.3 1 .1 2-.5 2.4-.7.5-.8.2-.3-.6.6-1 .4-1.2-.8-.7-.9.3-1.9.1-2.3-.5-.4-.6-.3-.8.4-.4s1-.1.9-1.4c-.1-2-1.7-2.9-1.7-1 0 .5-.5 1-1.1 1-.8 0-.8-.5.1-1.5.8-1 .9-1.5.2-1.5-.6 0-1.6.8-2.1 1.7-.6 1-1.1 1.3-1.1.7 0-.5.5-1.5 1.1-2.1.9-.9.2-1.1-2.4-.9-2 .2-3.4-.1-3.1-.5.3-.5-.2-.9-1.1-.9-.9 0-1.3.4-1 1 .3.5.1 1-.5 1-.7 0-1-.6-.7-1.3.2-.6 1.5-1.1 2.9-1 2.8.2 3.2-2.3.7-5.4-1.3-1.6-1.3-1.7.4-.4 1.3 1 1.7 1 1.7.1zm-14.5 1c-.3.5-1.2 1-1.8 1-.7 0-.6-.4.3-1 1.9-1.2 2.3-1.2 1.5 0zm8.5 3.5c-1.2 1.5-4 1-4-.7 0-.7.5-.6 1.3.1 1.4 1.1 2.7.5 2.7-1.1 0-.5-.4-.6-1-.3-.6.4-.7-.1-.3-1.1.6-1.5.7-1.5 1.5 0 .6 1.1.6 2.2-.2 3.1zm27.1.1c.7.9.8 1.8.2 2.6-.6.7-1.3 2.2-1.6 3.3-.7 2-.7 2 .8.1 1.1-1.4 1.5-1.6 1.5-.5 0 1.2.2 1.2 1-.1 1.4-2.2 1.2-.6-.4 2.4-1.3 2.6-1.3 2.6-3.1.6-1-1.1-1.4-2-.9-2 .5 0 0-.8-1.1-1.7l-2-1.6 2 .7c1.9.6 1.9.5.2-.8-1.6-1.2-1.6-1.4-.2-2 .9-.3 1.3-.2 1 .3-.3.5 0 1.3.6 1.7.8.5.9.3.4-.6-.6-.9-.4-1.1.6-.5 1.2.7 1.2.6.1-.7-.8-.9-2-1.4-2.8-1.1-.8.3-1.4.1-1.4-.4 0-1.5 3.8-1.3 5.1.3zm8.4 4.5c-.4 1.2-.1 2.1.9 2.5 1.2.5 1.3 1 .5 2.5-1.2 2.3-2.6 2.5-2.6.4 0-.8.4-1.5.9-1.5s.6-.5.2-1.1c-.4-.8-.9-.7-1.5.2-1.2 1.9-.7-2 .5-4.1.7-1.2.6-1.3-.4-.3-1.8 1.7-2.2 4.4-.8 6 .8 1 .7 1.3-.3 1.4-1.2 0-1.2.1 0 .6 1.1.5 1.1.7 0 1.4s-1.1 1.1-.1 1.7c.9.6.6 1.2-1.3 2L742 260l1.5-2.9c1.3-2.5 1.3-3.1 0-4.1-1.3-1-1.3-1.6 0-4.1.9-1.5 1.5-3.2 1.4-3.6-.3-2 .2-2.3 2.1-1.3 1.5.8 1.9 1.7 1.5 3.1zm1 8.9c-.3.5-1 1-1.6 1-.5 0-.9-.5-.9-1 0-.6.7-1 1.6-1 .8 0 1.2.4.9 1zm-.4 4.4c-1.2 3.1-2.6 3.5-1.8.5.5-1.7.3-1.8-.9-.8-.8.6-1.7.9-2 .6-.3-.3.7-1.2 2.3-2 3.4-1.8 3.6-1.7 2.4 1.7zm3.1-1.2c-.7.7-.8 1.7-.2 2.9.7 1.2.6 2-.2 2.5-.7.5-.8.3-.3-.6.6-1 .4-1.2-.8-.7-1 .3-1.7.2-1.7-.3 0-.6.5-1 1.1-1 .5 0 .7-.5.4-1-.7-1.2 1.4-4.4 2.3-3.5.3.3.1 1-.6 1.7z"/><path d="M719.9 238.2c-.7 1.7-.4 6.8.3 6.8.6 0 .8-.7.5-1.4-.4-1.1-.1-1.3 1.1-.9 1.4.5 1.4.3-.3-1.8l-2-2.4 2.8 2.4c1.5 1.4 2.7 2 2.7 1.5s1-1.1 2.2-1.1c1.3-.1 1.8.1 1.2.5-.6.4-1 1.5-.8 2.5.1.9-.2 1.5-.7 1.1-.5-.3-.7-.9-.4-1.4.3-.5-.4-.8-1.5-.7-2.7.2-2.5 1.1.6 2.5 1.4.7 2.2 1.7 1.9 2.2-.3.6-.1 1 .5 1 .7 0 1-.7.7-1.5-.4-.8-.1-1.7.5-2.1.6-.4.8-.3.4.4-.3.6.4 2.1 1.6 3.4 1.3 1.3 2.2 2.2 2.1 1.9-.2-.2.2-1 .7-1.6.7-.9.6-1.6-.5-2.5-.8-.7-1.5-.9-1.5-.4s-.7-.2-1.6-1.5c-1.2-1.7-1.3-2.6-.5-3.4.6-.6 1.1-1.6 1.1-2.2 0-.5-.5-.3-1 .5s-1 1-1 .4-1.2-1-2.7-.9c-1.6.1-3.6-.2-4.5-.7-1-.5-1.9-.7-1.9-.6zm13.5 10.9c-.3.5-1 .7-1.5.3-.5-.3-.7-1-.3-1.5.3-.5 1-.7 1.5-.3.5.3.7 1 .3 1.5zM735.9 251.2c-.6 2-.6 3.9 0 4.2.4.3.7-.6.7-2 0-2-.4-3.2-.7-2.2zM749.5 242c.3.6 1.4 1 2.3 1 1.5 0 1.5.2.2 1.1-1 .7-1.1.9-.2.7 2-.5 1.6-2.1-.8-3-1.3-.5-1.9-.4-1.5.2zM755.5 243.9c.3.5 0 1.1-.7 1.3-.7.3-.5.7.6 1.1.9.4 1.5.3 1.1-.2-.3-.5 0-1.1.7-1.3.7-.3.5-.7-.6-1.1-.9-.4-1.5-.3-1.1.2zM760.1 245.7c.7 1.2 1.5 2 1.8 1.7.3-.2-.3-1.2-1.3-2.2-1.7-1.6-1.8-1.6-.5.5zM758 247.5c0 .8.4 1.5 1 1.5.5 0 .7-.7.4-1.5-.4-.8-.8-1.5-1-1.5-.2 0-.4.7-.4 1.5zM763.7 248.7c-1 .9-.9 2.3.1 2.3.5 0 .9-.7.9-1.5 0-1.7-.1-1.8-1-.8zM771.4 250.4c.1.8.5 1.8.8 2.2.4.3.5-.1.4-1-.1-.8-.5-1.8-.8-2.2-.4-.3-.5.1-.4 1zM767 251c-1.1.7-1.1 1-.2 1 .7 0 1.1.4.7.9-.3.5 0 1.3.6 1.7.8.5.9.3.4-.6-.6-1-.3-1.2 1.1-.7 1.8.7 1.8.6.2-.6-1-.8-1.5-1.7-1.1-2 .9-1 0-.8-1.7.3zM758.8 251.7c.6.2 1.8.2 2.5 0 .6-.3.1-.5-1.3-.5-1.4 0-1.9.2-1.2.5zM763 252.9c0 .7-.5.9-1.2.5-.7-.5-.8-.3-.3.5.5.9 1 1 1.8.2.6-.6.8-1.4.4-1.8-.4-.3-.7-.1-.7.6zM774.9 253.7c-1.3 1.6-1.2 1.7.4.4 1.6-1.3 2.1-2.1 1.3-2.1-.2 0-1 .8-1.7 1.7zM779.6 253.3c.3 1 .9 1.5 1.2 1.2.3-.3 0-1.1-.7-1.8-1-.9-1.1-.8-.5.6zM758.2 255c1.2 1.9 2.8 2.7 2.8 1.4 0-.7-2.7-3.4-3.4-3.4-.4 0-.1.9.6 2zM777.7 254.7c-1 .9-.9 2.3.1 2.3.5 0 .9-.7.9-1.5 0-1.7-.1-1.8-1-.8zM755 255.6c0 .7 2.7 3.4 3.4 3.4.4 0 .1-.9-.6-2-1.2-1.9-2.8-2.7-2.8-1.4zM770.6 256c.5.8.9 1.8.9 2.2 0 .3.3.9.7 1.3.3.4.5 0 .4-.9-.1-.9-.8-2.2-1.6-2.9-1-1-1.1-.9-.4.3zM785.5 257c-.3.6.1.7.9.4 1.8-.7 2.1-1.4.7-1.4-.6 0-1.3.4-1.6 1zM761.5 258c-.3.5-.3 1 .2 1.1.4.1-.3.5-1.7 1l-2.5.8 2.5-.2c1.4-.1 2.4-.7 2.2-1.2-.2-.6.7-1.3 2-1.7 2.3-.6 2.3-.6.1-.7-1.2-.1-2.5.3-2.8.9zM775.1 258.7c.7 1.2 1.5 2 1.8 1.7.3-.2-.3-1.2-1.3-2.2-1.7-1.6-1.8-1.6-.5.5zM764 260.5c-1.9 2.2-.8 2.5 1.3.3.9-1 1.3-1.8.8-1.8s-1.4.7-2.1 1.5zM778.5 260.1c-.3.4.2.6 1 .5 2.1-.3 2.8-1.3 1-1.3-.9 0-1.8.4-2 .8zM790 259.4c0 .2.8 1 1.8 1.7 1.5 1.3 1.6 1.2.3-.4s-2.1-2.1-2.1-1.3zM767.7 260.7c-1.3 1.2-.7 2.3 1.1 2.2 1 0 1.2-.3.4-.6-.6-.2-1-.9-.6-1.4.6-1 0-1.2-.9-.2zM783.3 261.5c0 .8.4 1.2.9.9.5-.3.6-1 .3-1.5-.9-1.3-1.2-1.1-1.2.6zM765 263.5c0 .8.4 1.5 1 1.5.5 0 .7-.7.4-1.5-.4-.8-.8-1.5-1-1.5-.2 0-.4.7-.4 1.5zM760.9 264.8c.5 1 2 1.8 3.3 1.9 1.7.2 1.9 0 .8-.7-.8-.5-1.8-.6-2.2-.4-.4.3-.8-.2-.8-1 0-.9-.5-1.6-1-1.6-.7 0-.7.6-.1 1.8zM775 263.9c0 .5.8 1.5 1.8 2.2 1.5 1.2 1.6 1.2.5-.2-.7-.9-1-1.9-.6-2.2.3-.4.1-.7-.5-.7-.7 0-1.2.4-1.2.9zM785.6 264.2c.3.5 1 .6 1.5.3 1.3-.9 1.1-1.2-.6-1.2-.8 0-1.2.4-.9.9zM771 266c1.4.9.7 1.4-1.3 1.1-.5-.1-.6.3-.2.9.5.8 1.1.8 2.1-.1 1.5-1.2 1-2.9-.9-2.9-.7 0-.6.4.3 1zM767 267.9c0 .6.4 1.3 1 1.6.6.3.7-.1.4-.9-.7-1.8-1.4-2.1-1.4-.7zM797.5 270.1c-.3.4.2.6 1 .5 2.1-.3 2.8-1.3 1-1.3-.9 0-1.8.4-2 .8zM767 272c-.9.6-1 1-.3 1 .6 0 1.5-.5 1.8-1 .8-1.2.4-1.2-1.5 0zM802.6 271.8c-.3.5.1.9.9.9s1.2-.4.9-.9c-.3-.4-.7-.8-.9-.8-.2 0-.6.4-.9.8zM771.5 272.9c-.3.5 0 1.3.6 1.7.8.5.9.3.4-.6-.6-1-.4-1.2.9-.7 1 .4 1.5.3 1.1-.3-.8-1.3-2.2-1.3-3-.1zM789 274.1c0 .5.5.7 1 .4.6-.3 1-.8 1-1.1 0-.2-.4-.4-1-.4-.5 0-1 .5-1 1.1zM783.7 274.7c-1 .9-.9 2.3.1 2.3.5 0 .9-.7.9-1.5 0-1.7-.1-1.8-1-.8zM795.6 275.8c-.3.5.1.9.9.9s1.2-.4.9-.9c-.3-.4-.7-.8-.9-.8-.2 0-.6.4-.9.8zM803 278.4c0 .2.8 1 1.8 1.7 1.5 1.3 1.6 1.2.3-.4s-2.1-2.1-2.1-1.3zM773.9 280.7c-1.2 1.6-1.2 1.7.2.6.9-.7 1.9-1 2.2-.6.4.3.7.1.7-.5 0-1.7-1.6-1.5-3.1.5zM781.8 280.8c-1.2 1.5-1.1 1.6.4.4.9-.8 2.2-1.1 2.7-.8.5.4 1.2.3 1.5-.2 1-1.6-3.3-1-4.6.6zM797.6 281.8c-.3.5.1.9.9.9s1.2-.4.9-.9c-.3-.4-.7-.8-.9-.8-.2 0-.6.4-.9.8zM811.6 284.2c.3.5 1 .6 1.5.3 1.3-.9 1.1-1.2-.6-1.2-.8 0-1.2.4-.9.9zM787.4 287.4c.1.8.5 1.8.8 2.2.4.3.5-.1.4-1-.1-.8-.5-1.8-.8-2.2-.4-.3-.5.1-.4 1zM780.6 287.8c-.3.5.1.9.9.9s1.2-.4.9-.9c-.3-.4-.7-.8-.9-.8-.2 0-.6.4-.9.8zM795 288c0 .5.5 1 1 1 .6 0 1-.5 1-1 0-.6-.4-1-1-1-.5 0-1 .4-1 1zM803.6 293.3c.3 1 .9 1.5 1.2 1.2.3-.3 0-1.1-.7-1.8-1-.9-1.1-.8-.5.6zM797.6 294.2c.3.4 1.1.5 1.9.1 2.1-.7 1.9-1.2-.4-1-1.1 0-1.8.5-1.5.9zM799.5 298c.3.5.8 1 1.1 1 .2 0 .4-.5.4-1 0-.6-.5-1-1.1-1-.5 0-.7.4-.4 1zM796 300c-.9.6-1 1-.3 1 .6 0 1.5-.5 1.8-1 .8-1.2.4-1.2-1.5 0zM814.6 304.2c.3.5 1 .6 1.5.3 1.3-.9 1.1-1.2-.6-1.2-.8 0-1.2.4-.9.9zM855.5 348c.3.5.8 1 1.1 1 .2 0 .4-.5.4-1 0-.6-.5-1-1.1-1-.5 0-.7.4-.4 1z"/></svg>